<svg width="17" height="17" viewBox="0 0 17 17" fill="none" xmlns="http://www.w3.org/2000/svg">
<path fill-rule="evenodd" clip-rule="evenodd" d="M0.978401 1.24847C1.10762 3.31041 2.08478 5.16644 3.60559 6.43029C3.96053 7.15063 4.4344 7.80866 5.00709 8.37519C3.7739 7.83694 2.67409 6.99897 1.8279 5.93716C1.25615 5.21972 0.810807 4.41957 0.504245 3.55891C0.187057 2.66841 0.026245 1.73335 0.0262451 0.779724L0.0262451 0.310974L2.86999 0.310974L2.86999 1.24847L0.978401 1.24847ZM3.8075 3.27972L3.8075 0.310974L12.245 0.310975L12.245 3.27972C12.245 6.00872 10.4645 8.32879 8.02625 9.18091C5.588 8.32879 3.8075 6.00872 3.8075 3.27972ZM13.1825 1.24848L15.0741 1.24848C14.9449 3.31041 13.9677 5.16644 12.4469 6.43029C12.092 7.15066 11.6181 7.80866 11.0454 8.37519C12.2786 7.83694 13.3784 6.99897 14.2246 5.93716C14.7963 5.21972 15.2417 4.41957 15.5482 3.55891C15.8654 2.66841 16.0262 1.73335 16.0262 0.779725L16.0262 0.310976L13.1825 0.310975L13.1825 1.24848ZM11.62 11.6235L11.62 15.3735L12.5575 15.3735L12.5575 16.311L3.49499 16.311L3.49499 15.3735L4.43249 15.3735L4.43249 11.6235L7.08874 11.6235L7.08874 9.81285C7.29271 9.90616 7.50215 9.99088 7.71696 10.0659L8.02624 10.174L8.33552 10.0659C8.55034 9.99088 8.75977 9.90616 8.96374 9.81285L8.96374 11.6235L11.62 11.6235ZM6.61999 14.1235L9.43249 14.1235L9.43249 13.186L6.61999 13.186L6.61999 14.1235Z" fill="#c6934b"/>
</svg>
