<svg width="17" height="17" viewBox="0 0 17 17" fill="none" xmlns="http://www.w3.org/2000/svg">
<path d="M8.02625 0.310976C6.444 0.310976 4.89728 0.780167 3.58169 1.65922C2.26609 2.53827 1.24071 3.7877 0.635212 5.24951C0.0297109 6.71131 -0.128716 8.31985 0.179966 9.87169C0.488647 11.4235 1.25057 12.849 2.36939 13.9678C3.48821 15.0866 4.91368 15.8486 6.46552 16.1573C8.01737 16.4659 9.6259 16.3075 11.0877 15.702C12.5495 15.0965 13.7989 14.0711 14.678 12.7555C15.5571 11.4399 16.0262 9.89322 16.0262 8.31097C16.0268 7.26024 15.8203 6.21969 15.4184 5.24883C15.0166 4.27797 14.4274 3.39583 13.6844 2.65284C12.9414 1.90986 12.0593 1.32061 11.0884 0.918772C10.1175 0.516937 9.07698 0.310403 8.02625 0.310976ZM9.0517 11.3946L8.54261 11.911C7.99675 12.4568 7.2564 12.7635 6.48443 12.7635C5.71246 12.7635 4.97211 12.4568 4.42625 11.911C3.88038 11.3651 3.57372 10.6248 3.57372 9.85279C3.57372 9.08082 3.88038 8.34047 4.42625 7.79461L4.94261 7.28552C5.08174 7.16637 5.2607 7.10411 5.44374 7.11118C5.62678 7.11825 5.80041 7.19413 5.92993 7.32366C6.05945 7.45318 6.13533 7.62681 6.1424 7.80984C6.14947 7.99288 6.08721 8.17185 5.96806 8.31097L5.4517 8.82734C5.17877 9.10027 5.02544 9.47044 5.02544 9.85643C5.02544 10.2424 5.17877 10.6126 5.4517 10.8855C5.72463 11.1584 6.09481 11.3118 6.48079 11.3118C6.86678 11.3118 7.23695 11.1584 7.50988 10.8855L8.02625 10.3692C8.16537 10.25 8.34434 10.1877 8.52738 10.1948C8.71041 10.2019 8.88404 10.2778 9.01356 10.4073C9.14309 10.5368 9.21897 10.7104 9.22604 10.8935C9.2331 11.0765 9.17085 11.2555 9.0517 11.3946ZM9.31352 8.05643L7.7717 9.59825C7.63475 9.73519 7.44901 9.81213 7.25534 9.81213C7.06166 9.81213 6.87592 9.73519 6.73897 9.59825C6.60202 9.4613 6.52509 9.27556 6.52509 9.08188C6.52509 8.88821 6.60202 8.70247 6.73897 8.56552L8.28079 7.0237C8.41774 6.88675 8.60348 6.80982 8.79715 6.80982C8.99083 6.80982 9.17657 6.88675 9.31352 7.0237C9.45047 7.16065 9.5274 7.34639 9.5274 7.54006C9.5274 7.73374 9.45047 7.91948 9.31352 8.05643ZM11.6262 8.82734L11.1099 9.33643C10.9708 9.45557 10.7918 9.51783 10.6088 9.51076C10.4257 9.50369 10.2521 9.42782 10.1226 9.29829C9.99304 9.16877 9.91716 8.99514 9.91009 8.8121C9.90302 8.62907 9.96528 8.4501 10.0844 8.31097L10.6008 7.79461C10.8737 7.52168 11.0271 7.1515 11.0271 6.76552C11.0271 6.37954 10.8737 6.00936 10.6008 5.73643C10.3279 5.4635 9.95768 5.31017 9.5717 5.31017C9.18572 5.31017 8.81554 5.4635 8.54261 5.73643L8.02625 6.25279C7.88712 6.37194 7.70815 6.4342 7.52512 6.42713C7.34208 6.42006 7.16845 6.34418 7.03893 6.21466C6.9094 6.08513 6.83353 5.9115 6.82646 5.72847C6.81939 5.54543 6.88165 5.36647 7.00079 5.22734L7.50988 4.71097C8.05575 4.16511 8.7961 3.85845 9.56806 3.85845C10.34 3.85845 11.0804 4.16511 11.6262 4.71098C12.1721 5.25684 12.4788 5.99719 12.4788 6.76916C12.4788 7.54112 12.1721 8.28147 11.6262 8.82734Z" fill="#F18522"/>
</svg>
